ply
format ascii 1.0
comment VCGLIB generated
element vertex 14
property float x
property float y
property float z
property float nx
property float ny
property float nz
property float texture_u
property float texture_v
element face 12
property list uchar int vertex_indices
end_header
0 0 1 -1 0 0 0.625 0
0 1 0 -0.7071068 0.7071068 0 0.375 0.25
0 0 0 -1 0 0 0.375 0
0 1 1 -0.7071068 0.7071068 0 0.625 0.25
1 1 0 0.5773503 0.5773503 -0.5773503 0.375 0.5
1 1 1 0.5773503 0.5773503 0.5773503 0.625 0.5
1 0 0 0.5773503 -0.5773503 -0.5773503 0.375 0.75
1 0 1 0.5773503 -0.5773503 0.5773503 0.625 0.75
0 0 0 0 -1 0 0.375 1
0 0 0 0 0 -1 0.125 0.75
0 1 0 0 0 -1 0.125 0.5
0 1 1 0 0 1 0.875 0.5
0 0 1 0 -1 0 0.625 1
0 0 1 0 0 1 0.875 0.75
3 0 1 2 
3 3 4 1 
3 5 6 4 
3 7 8 6 
3 4 9 10 
3 11 7 5 
3 0 3 1 
3 3 5 4 
3 5 7 6 
3 7 12 8 
3 4 6 9 
3 11 13 7 
